/* XPM */
static char *d3e40f6295624484ec5901555326203eigIN6h11IQuKDm9l[] = {
/* columns rows colors chars-per-pixel */
"32 32 12 1 ",
"  c #E0F8CF",
". c #472312",
"X c #98664C",
"o c #AC785C",
"O c #81543B",
"+ c #633F2B",
"@ c #B7DDA2",
"# c #9BCB84",
"$ c #090807",
"% c white",
"& c #96644A",
"* c #8CC173",
/* pixels */
"       ......       ......      ",
"       ......       ......      ",
"     ..Xooooo..   ..OOOOO+..    ",
"     ..Xooooo..   ..OOOOO+..    ",
"   ..XoOOOOOOXo...OOOOOOOOO+..  ",
"   ..XoOOOOOOXo...OOOOOOOOO+..  ",
" @#..XoOOooooooooooooooooOO+..  ",
"   ..XoOOooooooooooooooooOO+..  ",
"   ..XoooooooooooooooooooooO..  ",
"   ..XoooooooooooooooooooooO..  ",
"   ..XoooooooooooooooooooooO..  ",
"   ..Xoooooooo$$%%oooooo$$%%..  ",
"   ..Xoooooooo$$%%oooooo$$%%..  ",
"   ..Xoooooooo$$$$oooooo$$$$..  ",
"   ..Xoooooooo$$$$oooooo$$$$..  ",
"   ..XoooooooooooooooXOOoooO..  ",
"   ..XoooooooooooooooXOOoooO..  ",
"   ..OOooooooooooooooooooXO...  ",
"   ..OOooooooooooooooooooXO...  ",
"     ..OOOOOOOOOOOOOOOOOO..     ",
"     ..OOOOOOOOOOOOOOOOOO..     ",
"       ..&XXXXXXXXXXXXX..       ",
"       ..XXXXXXXXXXXXXX..       ",
"     ..Xooooooooooooooo....     ",
"     ..XoooOOXooooooooo....     ",
"     ..XoooOOXooooooooo....     ",
"       ..OOOOOOOOOOOOO...       ",
"       ..OOOOOOOOOOOOO...       ",
"         ..OOOO........         ",
"         ..OOOO........*        ",
"         ......   .....         ",
"         ......   .....         "
};
