/* XPM */
static char *xpm_[] = {
/* columns rows colors chars-per-pixel */
"32 32 8 1 ",
"  c #E0F8CF",
". c #472312",
"X c #633F2B",
"o c #81543B",
"O c #B7DDA2",
"+ c #AC785C",
"@ c #98664C",
"# c #8CC173",
/* pixels */
"      ......       ......       ",
"      ......       ......       ",
"    ..Xooooo..   ..oooooX..     ",
"    ..Xooooo..   ..oooooX..     ",
"  ..Xooooooooo...oooooooooX..   ",
"  ..Xooooooooo...oooooooooX..   ",
" O..Xoo+++++++++++++++++ooX..   ",
"  ..Xoo+++++++++++++++++ooX..   ",
"  ..o+++++++++++++++++++++o..   ",
"  ..o+++++++++++++++++++++o..   ",
"  ..o+++++++++++++++++++++o..   ",
"  ..+++++++++++++++++++++++..   ",
"  ..+++++++++++++++++++++++..   ",
"  ..+++++++++++++++++++++++..   ",
"  ..+++++++++++++++++++++++..   ",
"  ..o+++++++++++++++++++++o..   ",
"  ..o+++++++++++++++++++++o..   ",
"  ...o@+++++++++++++++++@o...   ",
"  ...o@+++++++++++++++++@o...   ",
"     ..ooooooooooooooooo..      ",
"     ..ooooooooooooooooo..      ",
"       ..@@@@@@@@@@@@@..        ",
"       ..@@@@@@@@@@@@@..        ",
"     ...+++++++++++++++...      ",
"     ...+++++++++++++++...      ",
"     ...+++++++++++++++...      ",
"       ...ooooooooooo...        ",
"       ...ooooooooooo...        ",
"         .............          ",
"         ............. #        ",
"         .....   .....          ",
"         .....   .....          "
};
