/* XPM */
static char *_bc615068d21434ace8f881cd7388c2eWla770QIHWznzDGL[] = {
/* columns rows colors chars-per-pixel */
"32 32 9 1 ",
"  c #E0F8CF",
". c #5F321E",
"X c #B57253",
"o c #874D32",
"O c #472312",
"+ c black",
"@ c white",
"# c #A06042",
"$ c #D18C6B",
/* pixels */
"                                ",
"                                ",
"                                ",
"                                ",
"                                ",
"                                ",
"                                ",
"                                ",
"                                ",
"                                ",
"                                ",
"                                ",
"                                ",
"                                ",
"                                ",
"            ...   ...           ",
"           .XXX. .oooO          ",
"          .XoooX.oooooO         ",
"          OXoXXXXXXXXoO         ",
"          OXXXXXXXXXXXO         ",
"          OXXXXXXXXXXXO         ",
"          OXXXX+@XXX+@O         ",
"          OXXXX++XXX++O         ",
"          OXXXXXXXXoXXO         ",
"          OoXXXXXXXXXoO         ",
"           OoooooooooO          ",
"            O#######O           ",
"           O$$XXXXXXOO          ",
"           O$$oXXXXXOO          ",
"            OooooooOO           ",
"             OooOOOO            ",
"             OOO OOO            "
};
