/* XPM */
static char *_c7c7159d0e44232aa6806c07104ebeebXhbdBI032pKRZsf[] = {
/* columns rows colors chars-per-pixel */
"32 32 11 1 ",
"  c #E0F8CF",
". c #472312",
"X c #633F2B",
"o c #81543B",
"O c #B7DDA2",
"+ c #AC785C",
"@ c #090807",
"# c white",
"$ c black",
"% c #98664C",
"& c #8CC173",
/* pixels */
"      ......       ......       ",
"      ......       ......       ",
"    ..Xooooo..   ..oooooX..     ",
"    ..Xooooo..   ..oooooX..     ",
"  ..Xooooooooo...oooooooooX..   ",
"  ..Xooooooooo...oooooooooX..   ",
" O..Xoo+++++++++++++++++ooX..   ",
"  ..Xoo+++++++++++++++++ooX..   ",
"  ..o+++++++++++++++++++++o..   ",
"  ..o+++++++++++++++++++++o..   ",
"  ..o+++++++++++++++++++++o..   ",
"  ..++++@##$+++++++@##$++++..   ",
"  ..++++@##$+++++++@##$++++..   ",
"  ..++++@@@@+++++++@@@@++++..   ",
"  ..++++@@@@+++++++@@@@++++..   ",
"  ..o+++++++++ooo+++++++++o..   ",
"  ..o+++++++++ooo+++++++++o..   ",
"  ...o%+++++++++++++++++%o...   ",
"  ...o%+++++++++++++++++%o...   ",
"     ..ooooooooooooooooo..      ",
"     ..ooooooooooooooooo..      ",
"       ..%%%%%%%%%%%%%..        ",
"       ..%%%%%%%%%%%%%..        ",
"     ..+++++++++++++++++..      ",
"     ..+++o+++++++++o+++..      ",
"     ..+++o+++++++++o+++..      ",
"       ...ooooooooooo...        ",
"       ...ooooooooooo...        ",
"         .............          ",
"         ............. &        ",
"         .....   .....          ",
"         .....   .....          "
};
