/* XPM */
static char *_51a0f355bcf4feec8f2f666a2095b77xg1UNJ8CFahAst9k[] = {
/* columns rows colors chars-per-pixel */
"32 32 12 1 ",
"  c #E0F8CF",
". c #472312",
"X c #633F2B",
"o c #81543B",
"O c #AC785C",
"+ c #98664C",
"@ c #9BCB84",
"# c #B7DDA2",
"$ c white",
"% c #090807",
"& c #96644A",
"* c #8CC173",
/* pixels */
"      ......       ......       ",
"      ......       ......       ",
"    ..Xooooo..   ..OOOOO+..     ",
"    ..Xooooo..   ..OOOOO+..     ",
"  ..Xooooooooo...O+ooooooO+..   ",
"  ..Xooooooooo...O+ooooooO+..   ",
"  ..XooOOOOOOOOOOOOOOOOooO+..@# ",
"  ..XooOOOOOOOOOOOOOOOOooO+..   ",
"  ..oOOOOOOOOOOOOOOOOOOOOO+..   ",
"  ..oOOOOOOOOOOOOOOOOOOOOO+..   ",
"  ..oOOOOOOOOOOOOOOOOOOOOO+..   ",
"  ..$$%%OOOOOO$$%%OOOOOOOO+..   ",
"  ..$$%%OOOOOO$$%%OOOOOOOO+..   ",
"  ..%%%%OOOOOO%%%%OOOOOOOO+..   ",
"  ..%%%%OOOOOO%%%%OOOOOOOO+..   ",
"  ..oOOOoo+OOOOOOOOOOOOOOO+..   ",
"  ..oOOOoo+OOOOOOOOOOOOOOO+..   ",
"  ...o+OOOOOOOOOOOOOOOOOOoo..   ",
"  ...o+OOOOOOOOOOOOOOOOOOoo..   ",
"     ..oooooooooooooooooo..     ",
"     ..oooooooooooooooooo..     ",
"       ..+++++++++++++&..       ",
"       ..++++++++++++++..       ",
"     ....OOOOOOOOOOOOOOO+..     ",
"     ....OOOOOOOOO+ooOOO+..     ",
"     ....OOOOOOOOO+ooOOO+..     ",
"       ...ooooooooooooo..       ",
"       ...ooooooooooooo..       ",
"         ........oooo..         ",
"        *........oooo..         ",
"         .....   ......         ",
"         .....   ......         "
};
