/* XPM */
static char *_7c7eb6383254e9cd9fc57c0846cf24fNl4azAKt4Aft7Ady[] = {
/* columns rows colors chars-per-pixel */
"32 32 9 1 ",
"  c #E0F8CF",
". c #5F321E",
"X c #472312",
"o c #874D32",
"O c #B57253",
"+ c white",
"@ c black",
"# c #A06042",
"$ c #D18C6B",
/* pixels */
"                                ",
"                                ",
"                                ",
"                                ",
"                                ",
"                                ",
"                                ",
"                                ",
"                                ",
"                                ",
"                                ",
"                                ",
"                                ",
"                                ",
"           ...   ...            ",
"          Xooo. .OOO.           ",
"         Xooooo.OoooO.          ",
"         XoOOOOOOOOoOX          ",
"         XOOOOOOOOOOOX          ",
"         XOOOOOOOOOOOX          ",
"         X+@OOO+@OOOOX          ",
"         X@@OOO@@OOOOX          ",
"         XOOoOOOOOOOOX          ",
"         XoOOOOOOOOOoX          ",
"          XoooooooooX           ",
"           X#######X            ",
"          XXOOOOOO$$X           ",
"          XXOOOOOo$$X           ",
"           XXooooooX            ",
"            XXXXooX             ",
"            XXX XXX             ",
"                                "
};
