/* XPM */
static char *_f7807bdfb764954b0ccde0976dd4857vYtHI2538OU4V05c[] = {
/* columns rows colors chars-per-pixel */
"32 32 7 1 ",
"  c #E0F8CF",
". c #B57253",
"X c #FEC327",
"o c #E6A521",
"O c #A95711",
"+ c #E08015",
"@ c #C46B1E",
/* pixels */
"                                ",
"                                ",
"                                ",
"                                ",
"                                ",
"        ................        ",
"       .XXXoOOOOOOOOOOOO.       ",
"       .XXoOOOOOOOOOOOooo.      ",
"      .XXXoOOOOOOOOOOOoXX.      ",
"      .XXXXooooooooooooXX.      ",
"       .+XXXXXXXXXXXXXXX+.      ",
"     ..++XXXXooooooXXXXX+..     ",
"     .++XXoX+++++++XXXXX++.     ",
"     .++XX+X++++++++XXXX++.     ",
"     .++XX+X+++++++++XX+++.     ",
"     .++XX+X+++++++++XX+++.     ",
"     .++XX+X+++++++++XX+++.     ",
"     .++XX+++++++++++XX+++.     ",
"     .++oo+++++++++++XX+++.     ",
"     .+++++++++++++++XX+++.     ",
"      .OO++++++++++++XXOO.      ",
"      .@OOOOOOOOOOOOOXXO@.      ",
"       .OOOOOOOOOOOOOooO.       ",
"        .OOOOOOOOOOOOOO.        ",
"        .@OOOOOOOOOOOO@.        ",
"         .@OOOOOOOOOO@.         ",
"          .@@@@@@@@@@.          ",
"           ..........           ",
"                                ",
"                                ",
"                                ",
"                                "
};
