/* XPM */
static char *_67a03392b064ed68c697635d7dea328goEPMRVvhxsy0XXv[] = {
/* columns rows colors chars-per-pixel */
"32 32 13 1 ",
"  c #E0F8CF",
". c #1F4343",
"X c #569D39",
"o c #B8DDA3",
"O c #498B7D",
"+ c #B7DDA2",
"@ c #9BCB84",
"# c #8EC276",
"$ c #407F83",
"% c #387079",
"& c #C8E8B5",
"* c #234D4C",
"= c #9FCD88",
/* pixels */
"                                ",
"                                ",
"                                ",
"            ........            ",
"           .......... Xo        ",
"         ....OOOOOO....         ",
" +@    ....OOOOOOOOOO....       ",
"    #  ..OOO$$$$$$$OOOO..       ",
"      ..OOO$$%%%%%$$$OOO..      ",
"      ..OO$%%%%%%%%%$$OO..      ",
"    &..OOO$%%%***%%%%$OOO..     ",
"    =..OO$%%%*****%%%$$$O..     ",
"     ..O$%%%*******%%%$$O..     ",
"     ..O$%%*********%%$$O..     ",
"     ..O$%%*********%%$$O..     ",
"     ..O$%%****..***%%$$O..     ",
"     ..O$%%****..***%%$$O..     ",
"     ..O$%%***....**%%$$O..     ",
"     ..O$%%***....**%%$$O..     ",
"     ..O$%%***....**%%$$O..     ",
"     ..O$%%***....**%%$$O..     ",
"     ..O$%%****..***%%$$O..     ",
"     ..O$%%*********%%$$O..     ",
"     ..O$%%*********%%$$O..     ",
"     ..O$%%%********%%$$O..     ",
"     ..O$%%%%******%%%$$O..     ",
"     ..O$$%%%%%%%%%%%%$$O..     ",
"     ..OO$%%%%%%%%%%%$$OO..     ",
"     ..OOO$$$$$$$$$$$$OOO..     ",
"     ..OOOO$$$$$$$$$OOOOO..     ",
"     ..OOOOOOOOOOOOOOOOOO..     ",
"     ..OOOOOOOOOOOOOOOOOO..     "
};
