/* XPM */
static char *c39c8c37c2ff4beee6c9a1b8b8364d101woq5dZHNsT6fITZ[] = {
/* columns rows colors chars-per-pixel */
"32 32 5 1 ",
"  c #E0F8CF",
". c #7A4329",
"X c #348714",
"o c #2C7610",
"O c #286B0E",
/* pixels */
"            ........            ",
"            ........            ",
"      ......XXXXXXXX......      ",
"      ......XXXXXXXX......      ",
"    ..XXXXXXXXXXXXXXXXXXXX..    ",
"    ..XXXXXXXXXXXXXXXXXXXX..    ",
"    ..XXXXXXXXXXXXXXXXXXXX..    ",
"  ....XXXXXXXXXXXXXXXXXXXX....  ",
"  ..XXXXXXXXXXXXXXXXXXXXXXXX..  ",
"  ..XXXXXXXXXXXXXXXXXXXXXXXX..  ",
"  ..XXXXXXXXXXXXXXXXXXXXXXXX..  ",
"..XXXXXXXXXXXXXXXXXXXXXXXXXXXX..",
"..XXXXXXXXXXXXXXXXXXXXXXXXXXXX..",
"..ooXXXXXXXXXXXXXXXXXXXXXXXXoo..",
"..oooXXXXXXXXXXXXXXXXXXXXXoooo..",
"..oooooXXXXXXXXXXXXXXXXXoooooo..",
"..ooooooXXXXXXXXXXXXXXoooooooo..",
"..ooooooooXXXXXXXXXXoooooooooo..",
"..OOoooooooooXXXXXooooooooooOO..",
"..OOOoooooooooooooooooooooOOOO..",
"..OOOOOoooooooooooooooooOOOOOO..",
"..OOOOOOooooooooooooooOOOOOOOO..",
"..OOOOOOOOooooooooooOOOOOOOOOO..",
"  ..OOOOOOOOOoooooOOOOOOOOOO..  ",
"  ..OOOOOOOOOOOOOOOOOOOOOOOO..  ",
"  ..OOOOOOOOOOOOOOOOOOOOOOOO..  ",
"    ....OOOOOOOOOOOOOOOO....    ",
"    ....OOOOOOOOOOOOOOOO....    ",
"        ....OOOOOOOO....        ",
"        ....OOOOOOOO....        ",
"            ........            ",
"            ........            "
};
